<svg xmlns="http://www.w3.org/2000/svg" version="1.1" xmlns:xlink="http://www.w3.org/1999/xlink" xmlns:svgjs="http://svgjs.dev/svgjs" width="1000" height="1000" viewBox="0 0 1000 1000"><rect width="1000" height="1000" fill="#333366"></rect><g transform="matrix(0.7,0,0,0.7,150.17398036099905,72.6463157894737)"><svg viewBox="0 0 202 247" data-background-color="#333366" preserveAspectRatio="xMidYMid meet" height="1222" width="1000" xmlns="http://www.w3.org/2000/svg" xmlns:xlink="http://www.w3.org/1999/xlink"><g id="tight-bounds" transform="matrix(1,0,0,1,-0.050205761316874487,-0.09999999999999432)"><svg viewBox="0 0 202.10041152263372 247.2" height="247.2" width="202.10041152263372"><g><svg viewBox="0 0 202.10041152263372 247.2" height="247.2" width="202.10041152263372"><g><svg viewBox="0 0 202.10041152263372 247.2" height="247.2" width="202.10041152263372"><g id="textblocktransform"><svg viewBox="0 0 202.10041152263372 247.2" height="247.2" width="202.10041152263372" id="textblock"><g><svg viewBox="0 0 202.10041152263372 247.2" height="247.2" width="202.10041152263372"><g transform="matrix(1,0,0,1,0,0)"><svg width="202.10041152263372" viewBox="1.5 -36 29.8 36.449999999999996" height="247.2" data-palette-color="#ffff33"><g class="wordmark-text-0" data-fill-palette-color="primary" id="text-0"><path d="M27.05-0.38Q25.05 0.1 22.98 0.28 20.9 0.45 18.93 0.45 16.95 0.45 15.88 0.35 14.8 0.25 13.05-0.15 11.3-0.55 9.85-1.25 8.4-1.95 6.78-3.3 5.15-4.65 4.05-6.5L4.05-6.5Q1.5-10.8 1.5-17.6L1.5-17.6Q1.5-22.15 2.93-25.65 4.35-29.15 6.38-31.05 8.4-32.95 11-34.1L11-34.1Q15.2-36 19.45-36L19.45-36Q25.55-36 28.2-35L28.2-35Q29.4-34.55 30.35-33.6 31.3-32.65 31.3-30.85 31.3-29.05 30.43-26.3 29.55-23.55 27.9-23.55L27.9-23.55Q27.4-23.55 24.2-24.35 21-25.15 19.85-25.15L19.85-25.15Q18.1-25.15 16.88-23.2 15.65-21.25 15.65-17.65 15.65-14.05 16.73-12.05 17.8-10.05 19.55-10.05L19.55-10.05Q20.8-10.05 24.08-11.08 27.35-12.1 27.9-12.1L27.9-12.1Q29.45-12.1 30.33-9.25 31.2-6.4 31.2-4.65 31.2-2.9 30.13-1.88 29.05-0.85 27.05-0.38Z" fill="#ffff33" data-fill-palette-color="primary"></path></g></svg></g></svg></g></svg></g></svg></g></svg></g><defs></defs></svg><rect width="202.10041152263372" height="247.2" fill="none" stroke="none" visibility="hidden"></rect></g></svg></g></svg>